<?xml version="1.0" encoding="UTF-8" standalone="no"?><!DOCTYPE svg PUBLIC "-//W3C//DTD SVG 1.1//EN" "http://www.w3.org/Graphics/SVG/1.1/DTD/svg11.dtd"><svg width="100%" height="100%" viewBox="0 0 140 160" version="1.1" xmlns="http://www.w3.org/2000/svg" xmlns:xlink="http://www.w3.org/1999/xlink" xml:space="preserve" xmlns:serif="http://www.serif.com/" style="fill-rule:evenodd;clip-rule:evenodd;stroke-linecap:round;stroke-linejoin:round;stroke-miterlimit:1.5;"><path d="M69.75,52.5c19.869,0 36,16.131 36,36c0,19.869 -16.131,36 -36,36c-19.869,0 -36,-16.131 -36,-36c0,-19.869 16.131,-36 36,-36Zm-11.625,36l-17.625,0" style="fill:none;stroke:#1e3050;stroke-width:14px;"/><circle cx="58.125" cy="34.125" r="7.125" style="fill:#1e3050;"/><circle cx="34.875" cy="34.125" r="7.125" style="fill:#1e3050;"/><path d="M129,21.829l0,114.592c0,5.839 -4.74,10.579 -10.579,10.579l-96.592,0c-5.839,0 -10.579,-4.74 -10.579,-10.579l0,-114.592c0,-5.839 4.74,-10.579 10.579,-10.579l96.592,0c5.839,0 10.579,4.74 10.579,10.579Z" style="fill:none;stroke:#1e3050;stroke-width:13px;"/></svg>