<?xml version="1.0" encoding="UTF-8" standalone="no"?><!DOCTYPE svg PUBLIC "-//W3C//DTD SVG 1.1//EN" "http://www.w3.org/Graphics/SVG/1.1/DTD/svg11.dtd"><svg width="100%" height="100%" viewBox="0 0 384 384" version="1.1" xmlns="http://www.w3.org/2000/svg" xmlns:xlink="http://www.w3.org/1999/xlink" xml:space="preserve" xmlns:serif="http://www.serif.com/" style="fill-rule:evenodd;clip-rule:evenodd;stroke-linejoin:round;stroke-miterlimit:2;"><g><path d="M105.375,0l173.25,0c0.33,0.166 0.484,0.587 0.814,0.753c0.108,0.054 0.141,-0.185 1.499,0.167c7.392,1.916 11.234,5.447 12.016,6.109c0.107,0.09 10.177,7.392 10.736,21.824c0.244,6.303 -4.95,7.322 -7.082,6.854c-5.216,-1.145 -4.991,-6.785 -5.083,-7.599c-0.687,-6.111 -5.071,-14.491 -15.89,-15.821c-1.59,-0.195 -1.598,-0.174 -150.01,-0.174c-16.133,-0 -19.572,-0.375 -24.107,2.317c-9.265,5.501 -9.202,13.545 -9.204,18.196c-0.003,8.52 -0.037,102.219 0,106.506c0.011,1.31 -0.147,1.607 1.103,2.008c0.112,0.036 0.114,0.032 186.708,0.032c10.645,0 10.778,0.092 11.31,-0.504c0.251,-0.281 0.251,-2.798 0.251,-3.042c0.007,-87.639 -0.056,-87.647 0.182,-89.3c0.955,-6.659 12.196,-7.255 11.931,2.303c-0.056,2.006 -0.05,2.006 -0.05,271.498c0,5.869 0.708,13.147 -4.373,21.607c-4.563,7.597 -12.101,11.118 -12.5,11.394c-2.51,1.741 1.686,14.612 -3.558,21.878c-3.926,5.44 -7.945,5.905 -8.344,6.167c-0.33,0.217 -0.519,0.611 -0.85,0.828l-20.25,-0c-0.334,-0.194 -0.536,-0.57 -0.87,-0.764c-0.207,-0.12 -0.472,-0.086 -0.703,-0.149c-0.244,-0.066 -2.631,-0.881 -4.491,-2.38c-8.487,-6.842 -5.776,-15.452 -6.253,-21.064c-0.013,-0.157 -0.117,-1.376 -1.172,-1.579c-0.515,-0.099 -68.14,0.049 -69.748,-0.08c-8.139,-0.655 -8.189,-10.638 -0.78,-11.963c0.885,-0.158 0.895,-0.141 98.268,-0.141c6.795,-0 14.288,0.797 20.47,-7.857c3.569,-4.997 3.091,-11.842 3.092,-12.147c0,-56.5 0,-113 0,-169.5c-0.007,-2.146 0.342,-2.957 -1.81,-3.029c-0.42,-0.014 -116.611,-0.002 -126.751,-0.001c-2.231,0 -2.827,0.053 -2.846,2.282c-0.003,0.417 -0.024,2.925 -0.412,5.199c-0.436,2.554 -2.883,9.946 -11.689,12.247c-2.139,0.559 -2.17,0.491 -43.553,0.491c-11.478,-0 -11.807,-0.134 -12.149,0.739c-0.164,0.419 -0.147,0.428 -0.147,147.073c-0,4.823 -0.934,13.003 5.098,19.206c0.657,0.676 3.681,3.201 6.415,4.137c5.62,1.923 5.79,0.966 45.035,1.162c8.635,0.043 7.995,7.072 6.645,9.182c-3.204,5.008 -10.801,2.028 -12.525,3.237c-1.064,0.746 -0.295,6.929 -0.649,11.099c-0.614,7.234 -5.672,11.136 -7.007,11.926c-3.453,2.041 -3.684,1.534 -4.343,1.915c-0.334,0.193 -0.538,0.568 -0.872,0.761l-20.25,0c-0.33,-0.217 -0.519,-0.611 -0.85,-0.828c-0.026,-0.017 -1.19,-0.168 -3.726,-1.673c-3.419,-2.029 -6.584,-6.65 -7.096,-10.67c-0.687,-5.394 0.257,-14.142 -0.701,-15.389c-0.803,-1.045 -5.573,-2.051 -11.385,-9.5c-2.279,-2.921 -4.363,-7.836 -4.921,-10.271c-1.079,-4.711 -0.945,-4.755 -0.945,-32.294c0,-257.59 0.02,-266.942 -0.05,-272.248c-0.09,-6.752 1.896,-11.664 2.28,-12.615c1.42,-3.512 4.028,-6.837 4.454,-7.379c2.152,-2.743 5.698,-5.375 6.244,-5.781c0.337,-0.25 3.49,-2.321 6.255,-3.303c4.617,-1.641 4.749,-1.105 5.127,-1.295c0.33,-0.166 0.484,-0.587 0.814,-0.753l39.68,161.287c1.181,-0.508 1.341,-0.294 2.149,-1.301c1.105,-1.377 1.166,-5.426 0.484,-6.15c-0.629,-0.669 -2.129,-0.491 -3.313,-0.491c-50.819,-0.003 -50.812,0.011 -50.996,0.05c-1.154,0.246 -1.112,1.033 -1.065,5.986c0.012,1.295 -0.138,1.597 1.105,1.987c0.096,0.03 1.34,0.03 1.456,0.031c46.182,0.019 46.176,0.176 50.18,-0.112l-39.68,-161.287l167.608,370.421c0.973,-1.562 0.929,-1.656 0.916,-9.296c-0.004,-2.261 0.234,-3.07 -2.022,-3.093c-2.121,-0.021 -13.801,-0.002 -15.001,-0c-2.03,0.003 -3.191,-0.434 -3.201,2.341c-0.033,9.114 -0.591,11.501 5.45,11.514c11.771,0.027 11.814,-0.033 12.65,-0.477c0.822,-0.436 1.154,-0.945 1.209,-0.99l-167.608,-370.421l5.65,370.417c0.04,0.033 0.406,0.561 1.204,0.99c0.832,0.447 0.876,0.507 12.647,0.48c6.046,-0.014 5.483,-2.44 5.45,-11.514c-0.01,-2.775 -1.17,-2.338 -3.201,-2.341c-1.2,-0.002 -12.881,-0.021 -15.001,0c-2.257,0.023 -2.018,0.832 -2.022,3.093c-0.013,7.64 -0.058,7.736 0.924,9.292l-5.65,-370.417Z" style="fill-opacity:1;"/><path d="M276.107,170.994c2.85,2.524 2.488,3.07 2.488,19.131c0,102.088 0.022,102.099 -0.184,103.459c-1.06,7.013 -11.54,7.369 -11.974,-1.452c-0.018,-0.369 -0.017,-0.359 -0.016,-111.757c0,-3.81 -0.595,-8.894 4.742,-10.343c2.601,-0.706 4.809,0.888 4.944,0.962Z" style="fill-opacity:1;"/><path d="M268.586,30.042c0.089,-0.068 0.93,-0.974 2.487,-1.374c0.293,-0.075 1.86,-0.477 3.768,0.286c4.375,1.751 3.754,7.439 3.754,8.921c0,79.123 -0.001,79.122 -0.011,79.499c-0.188,7.628 -6.876,7.868 -9.566,5.8c-2.094,-1.609 -2.321,-3.686 -2.443,-4.291c-0.173,-0.857 -0.154,-0.854 -0.154,-72.758c-0,-13.083 -0.279,-13.461 2.164,-16.083Z" style="fill-opacity:1;"/><path d="M129.112,49.496c4.518,3.871 2.657,10.609 -4.235,10.925c-1.726,0.079 -1.739,-0.002 -2.149,0.181c-0.866,0.388 -0.726,0.695 -0.726,11.023c0,32.145 0.017,32.15 -0.132,32.999c-0.158,0.897 -0.284,2.487 -1.987,4.039c-3.292,2.998 -9.856,2.058 -10.067,-5.537c-0.003,-0.125 -0.026,-47.3 0.012,-48.003c0.421,-7.715 6.417,-6.919 13.547,-6.874c3.106,0.019 3.77,0.215 5.737,1.248Z" style="fill-opacity:1;"/><path d="M268.548,320.994c-1.482,-1.626 -2.168,-2.241 -2.124,-7.121c0.074,-8.085 7.548,-8.75 10.615,-5.175c2.647,3.086 1.226,9.416 1.126,9.764c-0.76,2.625 -3.488,4.17 -5.545,4.111c-2.804,-0.081 -4.052,-1.563 -4.072,-1.578Z" style="fill-opacity:1;"/></g></svg>