<?xml version="1.0" encoding="UTF-8" standalone="no"?><!DOCTYPE svg PUBLIC "-//W3C//DTD SVG 1.1//EN" "http://www.w3.org/Graphics/SVG/1.1/DTD/svg11.dtd"><svg width="100%" height="100%" viewBox="0 0 143 161" version="1.1" xmlns="http://www.w3.org/2000/svg" xmlns:xlink="http://www.w3.org/1999/xlink" xml:space="preserve" xmlns:serif="http://www.serif.com/" style="fill-rule:evenodd;clip-rule:evenodd;stroke-linejoin:round;stroke-miterlimit:1.5;"><g><path d="M114.375,155.276c-3.486,-0.12 -83.874,-0.018 -88.501,-0.052c-14.473,-0.106 -20.135,-10.418 -20.242,-19.848c-0.007,-0.592 -0.007,-109.658 0,-110.25c0.151,-13.271 9.994,-20.045 20.244,-19.9c9.887,0.14 89.122,-0.014 92.271,0.072c9.89,0.27 17.345,7.742 18.414,16.119c0.351,2.747 0.312,2.74 0.312,97.459c-0,18.513 0.67,23.458 -4.362,29.362c-6.046,7.093 -12.626,7.032 -18.135,7.039Z" style="fill:#1e3050;"/><path d="M127.474,94.875c0,42.376 0.022,42.385 -0.165,43.535c-1.131,6.967 -8.243,7.374 -9.186,7.428c-0.652,0.037 -0.637,0.034 -89.248,0.034c-3.298,-0 -11.361,1.02 -13.509,-6.745c-0.382,-1.383 -0.341,-1.397 -0.341,-87.002c0,-28.854 -0.026,-28.862 0.165,-30.035c1.13,-6.967 8.243,-7.374 9.186,-7.428c0.652,-0.037 0.637,-0.034 89.248,-0.034c3.322,0 11.361,-1.015 13.509,6.745c0.383,1.383 0.341,1.401 0.341,73.502Z" style="fill:#fefefe;"/></g><circle cx="36.231" cy="33.399" r="6.867" style="fill:#1e3050;"/><circle cx="59.354" cy="33.399" r="6.867" style="fill:#1e3050;"/><path d="M71.249,57c20.697,0 37.5,16.803 37.5,37.5c0,20.697 -16.803,37.5 -37.5,37.5c-20.697,0 -37.5,-16.803 -37.5,-37.5c0,-20.697 16.803,-37.5 37.5,-37.5Zm-37.5,29.25c0,0 10.733,-3.125 15.751,-1.5c8.875,2.875 27.625,15.75 37.5,18.75c6.941,2.109 21.749,-0.75 21.749,-0.75" style="fill:none;stroke:#1e3050;stroke-width:9.5px;"/></svg>