<?xml version="1.0" encoding="UTF-8" standalone="no"?><!DOCTYPE svg PUBLIC "-//W3C//DTD SVG 1.1//EN" "http://www.w3.org/Graphics/SVG/1.1/DTD/svg11.dtd"><svg width="100%" height="100%" viewBox="0 0 342 343" version="1.1" xmlns="http://www.w3.org/2000/svg" xmlns:xlink="http://www.w3.org/1999/xlink" xml:space="preserve" xmlns:serif="http://www.serif.com/" style="fill-rule:evenodd;clip-rule:evenodd;stroke-miterlimit:1.5;"><path d="M3.606,170.856c0.001,-42.133 25.969,-68.727 58.646,-102.521c33.878,-35.037 68.118,-64.729 108.604,-64.729c40.486,0 72.719,29.077 105.92,62.824c33.776,34.332 61.33,64.601 61.33,104.426c0,39.825 -28.071,71.385 -59.19,102.812c-35.645,35.999 -67.694,65.188 -108.06,65.188c-40.367,0 -69.007,-26.116 -106.092,-62.037c-29.789,-28.854 -61.159,-60.188 -61.158,-105.963Z" style="fill:#d5e8ed;stroke:#000;stroke-width:4px;"/><path d="M111.801,40.737l0,130.493" style="fill:none;stroke:#000;stroke-width:4px;"/><path d="M111.801,67.568l43.904,-25.611l24.391,19.513l0,98.785" style="fill:none;stroke:#000;stroke-width:4px;"/><path d="M99.606,160.254l140.25,0" style="fill:none;stroke:#000;stroke-width:4px;"/><path d="M225.221,160.254l0,-64.637l-45.124,-20.733" style="fill:none;stroke:#000;stroke-width:4px;"/><path d="M180.097,74.885l-68.296,50.002" style="fill:none;stroke:#000;stroke-width:4px;"/><path d="M132.534,160.254l0,-51.222" style="fill:none;stroke:#000;stroke-width:4px;"/><path d="M155.706,93.178l0,67.076" style="fill:none;stroke:#000;stroke-width:4px;"/><path d="M134.411,70.889l0,-7.317l7.317,-4.878l0,7.317l-7.317,4.878Z"/><path d="M134.411,70.889l0,-7.317l7.317,-4.878l0,7.317l-7.317,4.878Z"/><path d="M120.338,79.763l0,-7.317l7.317,-4.878l0,7.317l-7.317,4.878Z"/><path d="M120.338,79.763l0,-7.317l7.317,-4.878l0,7.317l-7.317,4.878Z"/><path d="M120.338,96.442l0,-7.317l7.317,-4.878l0,7.317l-7.317,4.878Z"/><path d="M120.338,96.442l0,-7.317l7.317,-4.878l0,7.317l-7.317,4.878Z"/><path d="M217.888,109.893l0,-7.354l-7.317,-3.622l0,7.317l7.317,3.659Z"/><path d="M217.888,109.893l-7.317,-3.659l0,-7.317l7.317,3.622l0,7.354Z"/><path d="M205.692,104.405l0,-7.354l-7.317,-3.622l0,7.317l7.317,3.659Z"/><path d="M205.692,104.405l-7.317,-3.659l0,-7.317l7.317,3.622l0,7.354Z"/><path d="M217.888,123.308l0,-7.354l-7.317,-3.622l0,7.317l7.317,3.659Z"/><path d="M217.888,123.308l-7.317,-3.659l0,-7.317l7.317,3.622l0,7.354Z"/><circle cx="132.534" cy="109.893" r="5.488" style="stroke:#000;stroke-width:2px;"/><circle cx="155.706" cy="92.819" r="5.488" style="stroke:#000;stroke-width:2px;"/><circle cx="180.097" cy="74.885" r="5.488" style="stroke:#000;stroke-width:2px;"/><text x="56.426px" y="236.26px" style="font-family:'BoldPact-Normal', 'BoldPact';font-size:62.173px;">C<tspan x="82.912px 108.714px 134.827px 160.628px 197.186px 222.677px 242.822px 268.624px " y="236.26px 236.26px 236.26px 236.26px 236.26px 236.26px 236.26px 236.26px ">OHOME SG</tspan></text><g><g transform="matrix(15.098,0,0,15.098,257.167553,264.152)"></g><text x="84.906px" y="264.152px" style="font-family:'TimesNewRomanPS-BoldMT', 'Times New Roman', serif;font-weight:700;font-size:15.098px;">HOME FOR EVER<tspan x="213.548px 224.45px " y="264.152px 264.152px ">YO</tspan>NE</text></g></svg>